# xmcd CD database file
#
# Track frame offsets:
#	150
#	12356
#	24756
#	40950
#	53016
#	69100
#	83905
#	96235
#	110941
#	124030
#	134257
#	145870
#	161446
#	174341
#	192424
#	215018
#	227104
#	242813
#	254961
#	264660
#	279149
#	294068
#	301434
#	313077
#	323234
#
# Disc length: 4454 seconds
#
# Revision: 0
# Processed by: cddbd v1.5.2PL0 Copyright (c) Steve Scherf et al.
# Submitted via: CDex 1.51
#
DISCID=68116419
DTITLE=Variuos - The Best Country Singers and Songs - Heroes Collection
DYEAR=2010
DGENRE=Country
TTITLE0=Kenny Rogers - Rueben James
TTITLE1=Freddy Fender - Wasted Days And Wasted Nights
TTITLE2=Janie Fricke - It Ain't Easy Being Easy
TTITLE3=Moe Bandy - Just Good Ol' Boys
TTITLE4=Exile - She's A Miracle
TTITLE5=Asleep At The Wheel - (Get Your Kicks On) Route 66 (Live)
TTITLE6=T G Sheppard - Tryin' To Beat The Morning Home
TTITLE7=Juice Newton - Queen Of Hearts
TTITLE8=Lynn Anderson - (I Never Promised You A) Rose Garden
TTITLE9=Patsy Cline - Threes Cigarettes In An Ashtray
TTITLE10=Donna Fargo - The Happiest Girl In The Whole USA
TTITLE11=Doug Stone - A Jukebox With A Country Song
TTITLE12=T Graham Brown - Brilliant Conversationalist
TTITLE13=Freddy Fender - Secret Love (Live)
TTITLE14=Restless Heart - Fast Movin' Train (Live)
TTITLE15=Alabama - Lovin' You Is Killin' Me
TTITLE16=Boxcar Willie - Your Cheatin' Heart
TTITLE17=Lacy J Dalton - Dream Baby
TTITLE18=Lynn Anderson - What A Man My Man Is
TTITLE19=Holly Dunn - Love Somesone Like Me
TTITLE20=Kenny Rogers - Just Dropped In (To See What Condition My Condition Was In)
TTITLE21=Mickey Gilley - Lookin' For Love (Live)
TTITLE22=Willie Nelson - Night Life
TTITLE23=Faron Young - Hello Walls
TTITLE24=Porter Wagoner - Misery Loves Company
EXTD=YEAR: 2010
EXTT0=
EXTT1=
EXTT2=
EXTT3=
EXTT4=
EXTT5=
EXTT6=
EXTT7=
EXTT8=
EXTT9=
EXTT10=
EXTT11=
EXTT12=
EXTT13=
EXTT14=
EXTT15=
EXTT16=
EXTT17=
EXTT18=
EXTT19=
EXTT20=
EXTT21=
EXTT22=
EXTT23=
EXTT24=
PLAYORDER=
